<svg xmlns="http://www.w3.org/2000/svg" version="1.1" xmlns:xlink="http://www.w3.org/1999/xlink" xmlns:svgjs="http://svgjs.com/svgjs" width="1440" height="560" preserveAspectRatio="none" viewBox="0 0 1440 560"><g mask="url(&quot;#SvgjsMask1308&quot;)" fill="none"><rect width="1440" height="560" x="0" y="0" fill="url(#SvgjsLinearGradient1309)"></rect><path d="M1440 0L927.59 0L1440 226.76z" fill="rgba(255, 255, 255, .1)"></path><path d="M927.59 0L1440 226.76L1440 265.6L708.24 0z" fill="rgba(255, 255, 255, .075)"></path><path d="M708.24 0L1440 265.6L1440 377.58000000000004L552.74 0z" fill="rgba(255, 255, 255, .05)"></path><path d="M552.74 0L1440 377.58000000000004L1440 399.67L211.66000000000003 0z" fill="rgba(255, 255, 255, .025)"></path><path d="M0 560L543.95 560L0 501.31z" fill="rgba(0, 0, 0, .1)"></path><path d="M0 501.31L543.95 560L1004.9300000000001 560L0 304.84000000000003z" fill="rgba(0, 0, 0, .075)"></path><path d="M0 304.84000000000003L1004.9300000000001 560L1166.39 560L0 167.89000000000004z" fill="rgba(0, 0, 0, .05)"></path><path d="M0 167.89L1166.39 560L1231.8400000000001 560L0 167.01z" fill="rgba(0, 0, 0, .025)"></path></g><defs><mask id="SvgjsMask1308"><rect width="1440" height="560" fill="#ffffff"></rect></mask><linearGradient x1="15.28%" y1="-39.29%" x2="84.72%" y2="139.29%" gradientUnits="userSpaceOnUse" id="SvgjsLinearGradient1309"><stop stop-color="#0e2a47" offset="0"></stop><stop stop-color="rgba(255, 215, 0, 1)" offset="1"></stop></linearGradient></defs></svg>